
<svg xmlns="http://www.w3.org/2000/svg" width="1024" height="1024" viewBox="0 0 1024 1024">
  <defs>
    <linearGradient id="grad1" x1="0%" y1="0%" x2="0%" y2="100%">
      <stop offset="0%" style="stop-color:#e4ff79;stop-opacity:1" />
      <stop offset="100%" style="stop-color:#006d32;stop-opacity:1" />
    </linearGradient>
  </defs>
  <rect width="1024" height="1024" fill="url(#grad1)"/>
  
  <!-- Left gate part -->
  <path d="M 280 280 L 280 744 C 280 820 340 880 416 880 L 608 880 C 684 880 744 820 744 744 L 744 280 C 744 204 684 144 608 144 L 416 144 C 340 144 280 204 280 280 Z" 
        fill="white" opacity="0.9"/>
  
  <!-- Right gate part -->
  <path d="M 480 200 L 480 824 C 480 900 540 960 616 960 L 808 960 C 884 960 944 900 944 824 L 944 360 C 944 284 884 224 808 224 L 616 224 C 540 224 480 284 480 360 Z" 
        fill="white" opacity="0.9"/>
  
  <!-- Center lock mechanism -->
  <circle cx="512" cy="512" r="80" fill="#006d32"/>
  <circle cx="512" cy="512" r="60" fill="white"/>
  <rect x="492" y="472" width="40" height="80" rx="20" fill="#006d32"/>
</svg>